<svg xmlns="http://www.w3.org/2000/svg" viewBox="0 0 512 512" role="img" aria-label="Moon">
  <defs>
    <filter id="shadow" x="-20%" y="-20%" width="140%" height="140%">
      <feDropShadow dx="0" dy="12" stdDeviation="12" flood-color="#b53333" flood-opacity="0.28"/>
    </filter>
  </defs>
  <g filter="url(#shadow)">
    <rect x="76" y="76" width="360" height="360" rx="56" fill="#d84545"/>
  </g>
  <rect x="76" y="76" width="360" height="360" rx="56" fill="none" stroke="#fff6ef" stroke-width="8"/>
  <path d="M208 180H328C358 180 382 204 382 234V346" fill="none" stroke="#fff6ef" stroke-width="12" stroke-linejoin="round"/>
  <path d="M246 180V248" stroke="#fff6ef" stroke-width="10" stroke-linecap="round"/>
  <path d="M284 180V236" stroke="#fff6ef" stroke-width="10" stroke-linecap="round"/>
  <path d="M270 286C270 260 286 244 308 244C330 244 346 260 346 286C346 310 330 328 308 328C286 328 270 310 270 286Z" fill="none" stroke="#fff6ef" stroke-width="10"/>
  <path d="M248 352C264 338 282 332 304 332C326 332 344 338 360 352" fill="none" stroke="#fff6ef" stroke-width="11" stroke-linecap="round"/>
  <path d="M382 248H406" stroke="#fff6ef" stroke-width="10" stroke-linecap="round"/>
</svg>
