<svg xmlns="http://www.w3.org/2000/svg" viewBox="0 0 512 512" role="img" aria-label="Wizard">
  <defs>
    <filter id="shadow" x="-20%" y="-20%" width="140%" height="140%">
      <feDropShadow dx="0" dy="12" stdDeviation="12" flood-color="#d8cdc0" flood-opacity="0.28"/>
    </filter>
  </defs>
  <g filter="url(#shadow)">
    <rect x="76" y="76" width="360" height="360" rx="56" fill="#fffaf3"/>
  </g>
  <rect x="76" y="76" width="360" height="360" rx="56" fill="none" stroke="rgba(255,255,255,0.32)" stroke-width="6"/>
  
  <circle cx="238" cy="198" r="8" fill="#1f1714"/>
  <circle cx="334" cy="198" r="8" fill="#1f1714"/>
  <path d="M208 212C224 184 248 170 276 170C300 170 318 180 332 202" fill="none" stroke="#1f1714" stroke-width="11" stroke-linecap="round"/>
  <path d="M240 246C254 266 270 276 288 276C306 276 322 266 336 246" fill="none" stroke="#1f1714" stroke-width="11" stroke-linecap="round"/>
  <path d="M264 278V346" stroke="#1f1714" stroke-width="11" stroke-linecap="round"/>
  <path d="M230 336C246 360 266 372 288 372C310 372 330 360 346 336" fill="none" stroke="#1f1714" stroke-width="11" stroke-linecap="round"/>
  <path d="M334 212C346 186 366 172 392 172C416 172 436 184 450 208" fill="none" stroke="#1f1714" stroke-width="11" stroke-linecap="round"/>
  <path d="M358 246C372 266 388 276 406 276C424 276 440 266 454 246" fill="none" stroke="#1f1714" stroke-width="11" stroke-linecap="round"/>
  <path d="M382 278V346" stroke="#1f1714" stroke-width="11" stroke-linecap="round"/>
    
</svg>